<svg id="logo_nameArtboard_1_copy_2" data-name="logo nameArtboard 1 copy 2" xmlns="http://www.w3.org/2000/svg" width="62.727" height="14.688" viewBox="0 0 62.727 14.688">
  <path id="Path_1" data-name="Path 1" d="M715.979,41.061c.842,0,1.587.022,2.329-.007a1.055,1.055,0,0,1,1.1.7c.473,1.014.972,2.023,1.505,3.122.523-1.069,1.03-2.048,1.477-3.054a1.035,1.035,0,0,1,1.182-.758c.735.075,1.482.016,2.3.016-.717,1.279-1.415,2.5-2.088,3.737-.345.632-.979,1.213-.952,1.912.026.673.613,1.245.957,1.859.682,1.217,1.379,2.428,2.068,3.642a.853.853,0,0,1,.033.182c-.977,0-1.943.01-2.906-.008-.224,0-.289-.25-.374-.426q-.766-1.532-1.53-3.064c-.047-.093-.108-.179-.191-.315-.54,1.1-1.073,2.149-1.569,3.214a.9.9,0,0,1-1,.626c-.776-.053-1.559-.013-2.361-.013a1.287,1.287,0,0,1,.27-.653c.838-1.484,1.667-2.974,2.541-4.438a1.073,1.073,0,0,0,.012-1.247c-.9-1.516-1.747-3.058-2.61-4.589C716.122,41.387,716.077,41.272,715.979,41.061Z" transform="translate(-663.169 -40.881)" fill="#072a86"/>
  <path id="Path_2" data-name="Path 2" d="M268.734,45.076c0-1.742.012-3.485-.009-5.226,0-.383.1-.51.484-.483a10.786,10.786,0,0,0,1.415,0c.365-.023.454.111.448.46-.016,1.943.007,3.886-.018,5.825-.006.448.111.584.564.578,1.158-.016,1.158.007,1.157-1.135,0-1.306,0-1.306,1.282-1.306,1.04,0,1.04,0,1.04,1.063,0,1.868-.01,3.737.006,5.605,0,.365-.075.523-.473.5a9.9,9.9,0,0,0-1.415,0c-.38.027-.453-.129-.448-.469.02-.871,0-1.742.012-2.616.006-.327-.1-.436-.433-.442-1.275-.023-1.275-.035-1.276,1.213,0,.635-.014,1.27.007,1.9.01.312-.094.413-.4.4a13.546,13.546,0,0,0-1.469,0c-.384.025-.49-.108-.487-.487C268.744,48.669,268.734,46.873,268.734,45.076Z" transform="translate(-249.342 -39.319)" fill="#072a86"/>
  <path id="Path_3" data-name="Path 3" d="M162.684,101.786c0,.963-.012,1.924.007,2.886.006.321-.065.46-.418.438a13.341,13.341,0,0,0-1.415,0c-.287.012-.378-.088-.374-.374.015-.817,0-1.634.01-2.451.006-.35-.091-.384-.41-.264a3.379,3.379,0,0,1-4.805-3,3.748,3.748,0,0,1,3.393-4.409A2.986,2.986,0,0,1,161.6,96.1c.3.617-.3.576-.541.776-.32.264-.374-.061-.466-.264a1.293,1.293,0,0,0-2.479.076,5.422,5.422,0,0,0,.008,3.729,1.124,1.124,0,0,0,1.352.736,1.046,1.046,0,0,0,.939-1.14c.022-.417.042-.835.037-1.252,0-.278.089-.388.377-.374.49.019.981.023,1.47,0,.32-.016.4.106.393.407C162.674,99.789,162.684,100.788,162.684,101.786Z" transform="translate(-144.355 -90.425)" fill="#072a86"/>
  <path id="Path_4" data-name="Path 4" d="M12.454,54.113v3.974c0,.685,0,.685.713.685.925,0,1.851.015,2.776-.008.344-.009.422.106.422.433,0,1.01.015,1.01-.988,1.01-1.815,0-3.63-.009-5.444.008-.368,0-.5-.084-.494-.477q.023-4.927,0-9.854c0-.423.128-.523.523-.5.673.032,1.345.031,2.014,0,.377-.016.495.095.489.481C12.44,51.282,12.454,52.7,12.454,54.113Z" transform="translate(-9.44 -48.587)" fill="#072a86"/>
  <path id="Path_5" data-name="Path 5" d="M364.614,102.606c0-.8-.034-1.6.013-2.391.03-.5-.149-.643-.614-.583-.232.03-.476-.025-.706.011-.529.085-.6-.163-.615-.629-.012-.492.138-.6.61-.6,1.705.029,3.412.034,5.117,0,.534-.011.474.277.475.611s.064.656-.475.605c-.448-.043-1.046-.155-1.315.075-.321.27-.1.886-.11,1.351-.016,1.345-.025,2.686,0,4.028.009.43-.14.528-.53.5a7.906,7.906,0,0,0-1.306,0c-.475.046-.577-.149-.559-.584C364.636,104.2,364.613,103.405,364.614,102.606Z" transform="translate(-336.291 -93.958)" fill="#072a86"/>
  <path id="Path_6" data-name="Path 6" d="M115.1,102.1c0,1.052-.013,2.1.007,3.156.007.336-.091.448-.429.427-.507-.027-1.016-.021-1.523,0-.289.01-.374-.1-.374-.374q.013-3.214,0-6.422c0-.283.093-.383.374-.374.507.017,1.017.025,1.523,0,.344-.018.43.107.424.436C115.086,100,115.1,101.053,115.1,102.1Z" transform="translate(-105.057 -94.052)" fill="#082a87"/>
  <path id="Path_7" data-name="Path 7" d="M161.1,42.46a1.153,1.153,0,0,1,1.213,1.23,1.216,1.216,0,0,1-1.215,1.2,1.177,1.177,0,0,1-1.2-1.254A1.127,1.127,0,0,1,161.1,42.46Z" transform="translate(-148.653 -42.184)" fill="#092a86"/>
  <path id="Path_8" data-name="Path 8" d="M465.3,46.746c-.086-.04-.212-.067-.193-.211a2.712,2.712,0,0,0,1.256-3.32,2.952,2.952,0,0,0-2.7-2.048,38.77,38.77,0,0,0-5.6-.1q0,5.287-.005,10.575c0,.211.066.436-.075.631h0c.119.216.324.111.485.112,1.4.008,2.8,0,4.194,0a7.2,7.2,0,0,0,1.779-.218,2.75,2.75,0,0,0,2.193-2.106C466.909,48.858,466.876,47.477,465.3,46.746Zm-4.652-1.38c.028-.3.006-.615.006-.922,0-1.389,0-1.389,1.409-1.282.162.013.324.028.487.038.916.06,1.255.421,1.242,1.33-.01.765-.437,1.163-1.3,1.2-.47.019-.942.01-1.41.045C460.77,45.794,460.618,45.72,460.651,45.366Zm2.086,4.917c-.543.015-1.087-.007-1.63.013-.32.012-.469-.082-.448-.427.024-.324.005-.652,0-.978,0-1.3,0-1.3,1.282-1.3.272,0,.544-.007.815.008a1.342,1.342,0,0,1-.024,2.681Z" transform="translate(-424.468 -40.844)" fill="#072a86"/>
  <path id="Path_9" data-name="Path 9" d="M457.264,51.057c.005-2.923,0-5.846.005-8.769a1.117,1.117,0,0,1,.052-.587c-.236.135-.1.358-.105.531q-.018,3.187-.006,6.374c0,1.433.019,2.867.029,4.3h0C457.3,52.29,457.262,51.673,457.264,51.057Z" transform="translate(-423.719 -41.48)" fill="#072a86"/>
  <path id="Path_10" data-name="Path 10" d="M591.922,42.067a4.7,4.7,0,0,0-4.464-3.3,4.625,4.625,0,0,0-4.6,2.915,7.682,7.682,0,0,0,.031,5.993c1.49,3.618,6.309,3.507,8.146,1.191a6.875,6.875,0,0,0,1.32-4.175A8.492,8.492,0,0,0,591.922,42.067Zm-2.746,5a2.01,2.01,0,0,1-1.9,1.365,1.925,1.925,0,0,1-1.837-1.44,7.587,7.587,0,0,1-.016-4.7,1.833,1.833,0,0,1,1.735-1.4,1.949,1.949,0,0,1,1.962,1.179,5.4,5.4,0,0,1,.411,2.45A6.155,6.155,0,0,1,589.176,47.064Z" transform="translate(-539.451 -38.761)" fill="#072a86"/>
</svg>
