<svg id="logoArtboard_1_copy" data-name="logoArtboard 1 copy" xmlns="http://www.w3.org/2000/svg" width="21.153" height="20.329" viewBox="0 0 21.153 20.329">
  <path id="Path_11" data-name="Path 11" d="M93.648,135.273a1.7,1.7,0,0,0-.591.916,11.753,11.753,0,0,1-3.435,4.591,10.1,10.1,0,0,1-3.423,1.926,4.762,4.762,0,0,1-4.749-.73,5.735,5.735,0,0,1-1.493-2.144,9.549,9.549,0,0,1-.778-3.129c.17-.08.2.057.257.161a5.767,5.767,0,0,0,2.3,2.551,2.634,2.634,0,0,0,2.619.028,5.612,5.612,0,0,0,2.006-1.821,15.374,15.374,0,0,0,2.679-6.779,9.631,9.631,0,0,0,.024-1.836c-.015-.409.088-.521.452-.387a5.871,5.871,0,0,1,3.968,3.726,5.111,5.111,0,0,1,.14,2.192,1.232,1.232,0,0,0-.046.554A.437.437,0,0,1,93.648,135.273Z" transform="translate(-76.051 -122.692)" fill="#cfd8e7"/>
  <path id="Path_12" data-name="Path 12" d="M138.01,30.964l-.106-.106c-.061-.209.076-.358.163-.521a7.352,7.352,0,0,0,.854-2.185A2.788,2.788,0,0,0,137.5,25.09a8.05,8.05,0,0,0-3.01-.893,15.3,15.3,0,0,0-5.65.444,9.059,9.059,0,0,0-2.314.922c-.477.273-.591.207-.651-.339a5.948,5.948,0,0,1,1.254-4.639,4.831,4.831,0,0,1,1.277-1.032c.09-.054.279-.035.223-.236.059-.245.28-.064.4-.155a1.431,1.431,0,0,0,.731,0,10.371,10.371,0,0,1,6.531.64,9.625,9.625,0,0,1,4.105,2.909,4.531,4.531,0,0,1,.191,5.862A9.094,9.094,0,0,1,138.01,30.964Z" transform="translate(-120.413 -18.383)" fill="#93bcfe"/>
  <path id="Path_13" data-name="Path 13" d="M23.849,9.288c-.076.181-.281.053-.388.161-.328.24-.726.141-1.088.218a5.116,5.116,0,0,0-2.055.783,2.793,2.793,0,0,0-1.125,2.736A8.333,8.333,0,0,0,20.6,16.8a14.63,14.63,0,0,0,4.366,4.568c.294.188.6.338.912.5.332.171.383.345.114.568-2.118,1.751-4.66,2.447-7.038.705a.919.919,0,0,1-.4-.446.305.305,0,0,0-.189-.171,11.338,11.338,0,0,1-3.01-9.6A4.9,4.9,0,0,1,17.574,9.2a5.512,5.512,0,0,1,4.012-.558A13.506,13.506,0,0,1,23.849,9.288Z" transform="translate(-15.237 -8.509)" fill="#072a86"/>
</svg>
